{"asset":{"version":"2.0","generator":"Blockbench 4.12.5 glTF exporter"},"scenes":[{"nodes":[5],"name":"blockbench_export"}],"scene":0,"nodes":[{"translation":[0,0.20703125,-1.00390625],"name":"cuboid-col","mesh":0},{"translation":[0.2109375,0.38671875,1.05859375],"name":"Tomato","children":[0]},{"translation":[0,-0.453125,0],"name":"Bin","children":[1]},{"translation":[0,0.453125,0],"name":"Top Rack","children":[2]},{"name":"Oven","children":[3]},{"children":[4]}],"bufferViews":[{"buffer":0,"byteOffset":0,"byteLength":1632,"target":34962,"byteStride":12},{"buffer":0,"byteOffset":1632,"byteLength":1632,"target":34962,"byteStride":12},{"buffer":0,"byteOffset":3264,"byteLength":1088,"target":34962,"byteStride":8},{"buffer":0,"byteOffset":4352,"byteLength":360,"target":34963},{"buffer":0,"byteOffset":4712,"byteLength":8},{"buffer":0,"byteOffset":4720,"byteLength":24},{"buffer":0,"byteOffset":4744,"byteLength":8},{"buffer":0,"byteOffset":4752,"byteLength":24}],"buffers":[{"byteLength":4776,"uri":"data:application/octet-stream;base64,"}],"accessors":[{"bufferView":0,"componentType":5126,"count":136,"max":[0.0625,0.046875,0.0625],"min":[-0.0625,-0.09375,-0.0625],"type":"VEC3"},{"bufferView":1,"componentType":5126,"count":136,"max":[1,1,1],"min":[-1,-1,-1],"type":"VEC3"},{"bufferView":2,"componentType":5126,"count":136,"max":[0.6158468723297119,0.609375],"min":[0.14129531383514404,0.09375],"type":"VEC2"},{"bufferView":3,"componentType":5123,"count":180,"max":[135],"min":[0],"type":"SCALAR"},{"bufferView":4,"componentType":5126,"count":2,"max":[0.75],"min":[0],"type":"SCALAR"},{"bufferView":5,"componentType":5126,"count":2,"max":[0,0.453125,0],"min":[0,0.453125,-0.3125],"type":"VEC3"},{"bufferView":6,"componentType":5126,"count":2,"max":[0.3333300054073334],"min":[0],"type":"SCALAR"},{"bufferView":7,"componentType":5126,"count":2,"max":[0,0.453125,0],"min":[0,0.453125,-0.3125],"type":"VEC3"}],"materials":[{"pbrMetallicRoughness":{"metallicFactor":0,"roughnessFactor":1,"baseColorTexture":{"index":0}},"alphaMode":"MASK","alphaCutoff":0.05,"doubleSided":true}],"textures":[{"sampler":0,"source":0,"name":"texture"}],"samplers":[{"magFilter":9728,"minFilter":9728,"wrapS":33071,"wrapT":33071}],"images":[{"mimeType":"image/png","uri":"data:image/png;base64,"}],"meshes":[{"primitives":[{"mode":4,"attributes":{"POSITION":0,"NORMAL":1,"TEXCOORD_0":2},"indices":3,"material":0}]}],"animations":[{"name":"open","samplers":[{"input":4,"output":5,"interpolation":"LINEAR"}],"channels":[{"sampler":0,"target":{"node":3,"path":"translation"}}]},{"name":"close","samplers":[{"input":6,"output":7,"interpolation":"LINEAR"}],"channels":[{"sampler":0,"target":{"node":3,"path":"translation"}}]}]}