{"asset":{"version":"2.0","generator":"Blockbench 4.12.5 glTF exporter"},"scenes":[{"nodes":[14],"name":"blockbench_export"}],"scene":0,"nodes":[{"name":"cuboid-col","mesh":0},{"name":"cuboid-col","mesh":1},{"name":"cuboid-col","mesh":2},{"translation":[0,0.0015625,0],"name":"cylinder-col","mesh":3},{"translation":[-0.01953125,0,-0.0625],"name":"cuboid-col","mesh":4},{"translation":[0.4375,-0.15625,0.5],"name":"cylinder-col","mesh":5},{"translation":[-0.4375,0.15625,-0.53125],"name":"wheel_left_front","children":[5]},{"translation":[0.4375,-0.15625,0.5],"name":"cylinder-col","mesh":6},{"translation":[-0.4375,0.15625,0.59375],"name":"wheel_left_rear","children":[7]},{"translation":[-0.4375,-0.15625,0.5],"name":"cylinder-col","mesh":7},{"translation":[0.4375,0.15625,-0.53125],"name":"wheel_right_front","children":[9]},{"translation":[-0.4375,-0.15625,0.5],"name":"cylinder-col","mesh":8},{"translation":[0.4375,0.15625,0.59375],"name":"wheel_right_rear","children":[11]},{"name":"root","children":[0,1,2,3,4,6,8,10,12]},{"children":[13]}],"bufferViews":[{"buffer":0,"byteOffset":0,"byteLength":6480,"target":34962,"byteStride":12},{"buffer":0,"byteOffset":6480,"byteLength":6480,"target":34962,"byteStride":12},{"buffer":0,"byteOffset":12960,"byteLength":4320,"target":34962,"byteStride":8},{"buffer":0,"byteOffset":17280,"byteLength":1620,"target":34963},{"buffer":0,"byteOffset":18900,"byteLength":672,"target":34962,"byteStride":12},{"buffer":0,"byteOffset":19572,"byteLength":672,"target":34962,"byteStride":12},{"buffer":0,"byteOffset":20244,"byteLength":448,"target":34962,"byteStride":8},{"buffer":0,"byteOffset":20692,"byteLength":168,"target":34963},{"buffer":0,"byteOffset":20860,"byteLength":672,"target":34962,"byteStride":12},{"buffer":0,"byteOffset":21532,"byteLength":672,"target":34962,"byteStride":12},{"buffer":0,"byteOffset":22204,"byteLength":448,"target":34962,"byteStride":8},{"buffer":0,"byteOffset":22652,"byteLength":168,"target":34963},{"buffer":0,"byteOffset":22820,"byteLength":960,"target":34962,"byteStride":12},{"buffer":0,"byteOffset":23780,"byteLength":960,"target":34962,"byteStride":12},{"buffer":0,"byteOffset":24740,"byteLength":640,"target":34962,"byteStride":8},{"buffer":0,"byteOffset":25380,"byteLength":192,"target":34963},{"buffer":0,"byteOffset":25572,"byteLength":1776,"target":34962,"byteStride":12},{"buffer":0,"byteOffset":27348,"byteLength":1776,"target":34962,"byteStride":12},{"buffer":0,"byteOffset":29124,"byteLength":1184,"target":34962,"byteStride":8},{"buffer":0,"byteOffset":30308,"byteLength":432,"target":34963},{"buffer":0,"byteOffset":30740,"byteLength":1728,"target":34962,"byteStride":12},{"buffer":0,"byteOffset":32468,"byteLength":1728,"target":34962,"byteStride":12},{"buffer":0,"byteOffset":34196,"byteLength":1152,"target":34962,"byteStride":8},{"buffer":0,"byteOffset":35348,"byteLength":384,"target":34963},{"buffer":0,"byteOffset":35732,"byteLength":1728,"target":34962,"byteStride":12},{"buffer":0,"byteOffset":37460,"byteLength":1728,"target":34962,"byteStride":12},{"buffer":0,"byteOffset":39188,"byteLength":1152,"target":34962,"byteStride":8},{"buffer":0,"byteOffset":40340,"byteLength":384,"target":34963},{"buffer":0,"byteOffset":40724,"byteLength":1728,"target":34962,"byteStride":12},{"buffer":0,"byteOffset":42452,"byteLength":1728,"target":34962,"byteStride":12},{"buffer":0,"byteOffset":44180,"byteLength":1152,"target":34962,"byteStride":8},{"buffer":0,"byteOffset":45332,"byteLength":384,"target":34963},{"buffer":0,"byteOffset":45716,"byteLength":1728,"target":34962,"byteStride":12},{"buffer":0,"byteOffset":47444,"byteLength":1728,"target":34962,"byteStride":12},{"buffer":0,"byteOffset":49172,"byteLength":1152,"target":34962,"byteStride":8},{"buffer":0,"byteOffset":50324,"byteLength":384,"target":34963},{"buffer":0,"byteOffset":50708,"byteLength":12},{"buffer":0,"byteOffset":50720,"byteLength":48},{"buffer":0,"byteOffset":50768,"byteLength":8},{"buffer":0,"byteOffset":50776,"byteLength":24},{"buffer":0,"byteOffset":50800,"byteLength":8},{"buffer":0,"byteOffset":50808,"byteLength":32},{"buffer":0,"byteOffset":50840,"byteLength":8},{"buffer":0,"byteOffset":50848,"byteLength":32},{"buffer":0,"byteOffset":50880,"byteLength":8},{"buffer":0,"byteOffset":50888,"byteLength":32},{"buffer":0,"byteOffset":50920,"byteLength":8},{"buffer":0,"byteOffset":50928,"byteLength":32}],"buffers":[{"byteLength":50960,"uri":"data:application/octet-stream;base64,"}],"accessors":[{"bufferView":0,"componentType":5126,"count":540,"max":[0.5,0.9375,1],"min":[-0.5,0.1875,-1],"type":"VEC3"},{"bufferView":1,"componentType":5126,"count":540,"max":[1,1,1],"min":[-1,-1,-1],"type":"VEC3"},{"bufferView":2,"componentType":5126,"count":540,"max":[0.5546875,0.46875],"min":[0,0],"type":"VEC2"},{"bufferView":3,"componentType":5123,"count":810,"max":[539],"min":[0],"type":"SCALAR"},{"bufferView":4,"componentType":5126,"count":56,"max":[-0.46875,0.5625,-0.21875],"min":[-0.65625,0.4375,-0.34375],"type":"VEC3"},{"bufferView":5,"componentType":5126,"count":56,"max":[1,1,1],"min":[-1,-1,-1],"type":"VEC3"},{"bufferView":6,"componentType":5126,"count":56,"max":[0.5,0.484375],"min":[0.001237187534570694,0.0234375],"type":"VEC2"},{"bufferView":7,"componentType":5123,"count":84,"max":[55],"min":[0],"type":"SCALAR"},{"bufferView":8,"componentType":5126,"count":56,"max":[0.65625,0.5625,-0.21875],"min":[0.46875,0.4375,-0.34375],"type":"VEC3"},{"bufferView":9,"componentType":5126,"count":56,"max":[1,1,1],"min":[-1,-1,-1],"type":"VEC3"},{"bufferView":10,"componentType":5126,"count":56,"max":[0.4921875,0.484375],"min":[0.125,0],"type":"VEC2"},{"bufferView":11,"componentType":5123,"count":84,"max":[55],"min":[0],"type":"SCALAR"},{"bufferView":12,"componentType":5126,"count":80,"max":[0.28125,0.25,1.03125],"min":[0.21875,0.1875,0.96875],"type":"VEC3"},{"bufferView":13,"componentType":5126,"count":80,"max":[1,1,1],"min":[-1,-1,-1],"type":"VEC3"},{"bufferView":14,"componentType":5126,"count":80,"max":[0.4921875,0.5],"min":[0.1875,0],"type":"VEC2"},{"bufferView":15,"componentType":5123,"count":96,"max":[79],"min":[0],"type":"SCALAR"},{"bufferView":16,"componentType":5126,"count":148,"max":[0.37890625,0.765625,0.26171875],"min":[-0.37890625,0.25,-0.26171875],"type":"VEC3"},{"bufferView":17,"componentType":5126,"count":148,"max":[1,1,1],"min":[-1,-1,-1],"type":"VEC3"},{"bufferView":18,"componentType":5126,"count":148,"max":[0.84375,0.8828374743461609],"min":[0.0011718750465661287,0.0040397047996521],"type":"VEC2"},{"bufferView":19,"componentType":5123,"count":216,"max":[147],"min":[0],"type":"SCALAR"},{"bufferView":20,"componentType":5126,"count":144,"max":[-0.34375,0.3125,-0.34375],"min":[-0.53125,0,-0.65625],"type":"VEC3"},{"bufferView":21,"componentType":5126,"count":144,"max":[1,1,1],"min":[-1,-1,-1],"type":"VEC3"},{"bufferView":22,"componentType":5126,"count":144,"max":[0.46875,0.46845704317092896],"min":[0,0],"type":"VEC2"},{"bufferView":23,"componentType":5123,"count":192,"max":[143],"min":[0],"type":"SCALAR"},{"bufferView":24,"componentType":5126,"count":144,"max":[-0.34375,0.3125,-0.34375],"min":[-0.53125,0,-0.65625],"type":"VEC3"},{"bufferView":25,"componentType":5126,"count":144,"max":[1,1,1],"min":[-1,-1,-1],"type":"VEC3"},{"bufferView":26,"componentType":5126,"count":144,"max":[0.5,0.4921875],"min":[0,0.0234375],"type":"VEC2"},{"bufferView":27,"componentType":5123,"count":192,"max":[143],"min":[0],"type":"SCALAR"},{"bufferView":28,"componentType":5126,"count":144,"max":[0.53125,0.3125,-0.34375],"min":[0.34375,0,-0.65625],"type":"VEC3"},{"bufferView":29,"componentType":5126,"count":144,"max":[1,1,1],"min":[-1,-1,-1],"type":"VEC3"},{"bufferView":30,"componentType":5126,"count":144,"max":[0.484375,0.46875],"min":[0,0.0625],"type":"VEC2"},{"bufferView":31,"componentType":5123,"count":192,"max":[143],"min":[0],"type":"SCALAR"},{"bufferView":32,"componentType":5126,"count":144,"max":[0.53125,0.3125,-0.34375],"min":[0.34375,0,-0.65625],"type":"VEC3"},{"bufferView":33,"componentType":5126,"count":144,"max":[1,1,1],"min":[-1,-1,-1],"type":"VEC3"},{"bufferView":34,"componentType":5126,"count":144,"max":[0.4921875,0.484375],"min":[0.0859375,0.0234375],"type":"VEC2"},{"bufferView":35,"componentType":5123,"count":192,"max":[143],"min":[0],"type":"SCALAR"},{"bufferView":36,"componentType":5126,"count":3,"max":[0.5],"min":[0],"type":"SCALAR"},{"bufferView":37,"componentType":5126,"count":3,"max":[0.004363309126347303,0,0,1],"min":[0,0,0,0.9999904632568359],"type":"VEC4"},{"bufferView":38,"componentType":5126,"count":2,"max":[0.5],"min":[0],"type":"SCALAR"},{"bufferView":39,"componentType":5126,"count":2,"max":[0,0,0],"min":[0,0,0],"type":"VEC3"},{"bufferView":40,"componentType":5126,"count":2,"max":[0.5],"min":[0],"type":"SCALAR"},{"bufferView":41,"componentType":5126,"count":2,"max":[0,0,0,1],"min":[-0.7071067690849304,0,0,0.7071067690849304],"type":"VEC4"},{"bufferView":42,"componentType":5126,"count":2,"max":[0.5],"min":[0],"type":"SCALAR"},{"bufferView":43,"componentType":5126,"count":2,"max":[0,0,0,1],"min":[-0.7071067690849304,0,0,0.7071067690849304],"type":"VEC4"},{"bufferView":44,"componentType":5126,"count":2,"max":[0.5],"min":[0],"type":"SCALAR"},{"bufferView":45,"componentType":5126,"count":2,"max":[0,0,0,1],"min":[-0.7071067690849304,0,0,0.7071067690849304],"type":"VEC4"},{"bufferView":46,"componentType":5126,"count":2,"max":[0.5],"min":[0],"type":"SCALAR"},{"bufferView":47,"componentType":5126,"count":2,"max":[0,0,0,1],"min":[-0.7071067690849304,0,0,0.7071067690849304],"type":"VEC4"}],"materials":[{"pbrMetallicRoughness":{"metallicFactor":0,"roughnessFactor":1,"baseColorTexture":{"index":0}},"alphaMode":"MASK","alphaCutoff":0.05,"doubleSided":true},{"pbrMetallicRoughness":{"metallicFactor":0,"roughnessFactor":1,"baseColorTexture":{"index":1}},"alphaMode":"MASK","alphaCutoff":0.05,"doubleSided":true}],"textures":[{"sampler":0,"source":0,"name":"truck.png"},{"sampler":1,"source":1,"name":"texture"}],"samplers":[{"magFilter":9728,"minFilter":9728,"wrapS":33071,"wrapT":33071},{"magFilter":9728,"minFilter":9728,"wrapS":33071,"wrapT":33071}],"images":[{"mimeType":"image/png","uri":"data:image/png;base64,"},{"mimeType":"image/png","uri":"data:image/png;base64,"}],"meshes":[{"primitives":[{"mode":4,"attributes":{"POSITION":0,"NORMAL":1,"TEXCOORD_0":2},"indices":3,"material":0}]},{"primitives":[{"mode":4,"attributes":{"POSITION":4,"NORMAL":5,"TEXCOORD_0":6},"indices":7,"material":0}]},{"primitives":[{"mode":4,"attributes":{"POSITION":8,"NORMAL":9,"TEXCOORD_0":10},"indices":11,"material":0}]},{"primitives":[{"mode":4,"attributes":{"POSITION":12,"NORMAL":13,"TEXCOORD_0":14},"indices":15,"material":0}]},{"primitives":[{"mode":4,"attributes":{"POSITION":16,"NORMAL":17,"TEXCOORD_0":18},"indices":19,"material":1}]},{"primitives":[{"mode":4,"attributes":{"POSITION":20,"NORMAL":21,"TEXCOORD_0":22},"indices":23,"material":0}]},{"primitives":[{"mode":4,"attributes":{"POSITION":24,"NORMAL":25,"TEXCOORD_0":26},"indices":27,"material":0}]},{"primitives":[{"mode":4,"attributes":{"POSITION":28,"NORMAL":29,"TEXCOORD_0":30},"indices":31,"material":0}]},{"primitives":[{"mode":4,"attributes":{"POSITION":32,"NORMAL":33,"TEXCOORD_0":34},"indices":35,"material":0}]}],"animations":[{"name":"go somewhere","samplers":[{"input":36,"output":37,"interpolation":"LINEAR"},{"input":38,"output":39,"interpolation":"LINEAR"},{"input":40,"output":41,"interpolation":"LINEAR"},{"input":42,"output":43,"interpolation":"LINEAR"},{"input":44,"output":45,"interpolation":"LINEAR"},{"input":46,"output":47,"interpolation":"LINEAR"}],"channels":[{"sampler":0,"target":{"node":13,"path":"rotation"}},{"sampler":1,"target":{"node":13,"path":"translation"}},{"sampler":2,"target":{"node":6,"path":"rotation"}},{"sampler":3,"target":{"node":8,"path":"rotation"}},{"sampler":4,"target":{"node":10,"path":"rotation"}},{"sampler":5,"target":{"node":12,"path":"rotation"}}]}]}