{"asset":{"version":"2.0","generator":"Blockbench 4.12.5 glTF exporter"},"scenes":[{"nodes":[17],"name":"blockbench_export"}],"scene":0,"nodes":[{"rotation":[0,0,0.7071067811865475,0.7071067811865476],"translation":[2.17578125,0.125,0],"name":"wheel_left-col","mesh":0},{"rotation":[0,0,-0.7071067811865475,0.7071067811865476],"translation":[-2.17578125,0.125,0],"name":"wheel_right-col","mesh":1},{"translation":[1.91796875,-0.12109375,1.5],"name":"cuboid","mesh":2},{"name":"steps","children":[2]},{"name":"exterior","children":[0,1,3]},{"translation":[1.6875,0.25,0],"name":"cuboid-col","mesh":3},{"translation":[-1.6875,0.25,0],"name":"cuboid-col","mesh":4},{"translation":[0,0.25,3.93359375],"name":"cuboid-col","mesh":5},{"translation":[0,0.25,-3.93359375],"name":"cuboid-col","mesh":6},{"name":"walls","children":[5,6,7,8]},{"translation":[0,3,0],"name":"roof-col","mesh":7},{"name":"ceiling","children":[10]},{"name":"floor-col","mesh":8},{"name":"floor","children":[12]},{"name":"outer","children":[4,9,11,13]},{"name":"inner"},{"translation":[0,0.1953125,0],"name":"root","children":[14,15]},{"children":[16]}],"bufferViews":[{"buffer":0,"byteOffset":0,"byteLength":2592,"target":34962,"byteStride":12},{"buffer":0,"byteOffset":2592,"byteLength":2592,"target":34962,"byteStride":12},{"buffer":0,"byteOffset":5184,"byteLength":1728,"target":34962,"byteStride":8},{"buffer":0,"byteOffset":6912,"byteLength":576,"target":34963},{"buffer":0,"byteOffset":7488,"byteLength":2592,"target":34962,"byteStride":12},{"buffer":0,"byteOffset":10080,"byteLength":2592,"target":34962,"byteStride":12},{"buffer":0,"byteOffset":12672,"byteLength":1728,"target":34962,"byteStride":8},{"buffer":0,"byteOffset":14400,"byteLength":576,"target":34963},{"buffer":0,"byteOffset":14976,"byteLength":2496,"target":34962,"byteStride":12},{"buffer":0,"byteOffset":17472,"byteLength":2496,"target":34962,"byteStride":12},{"buffer":0,"byteOffset":19968,"byteLength":1664,"target":34962,"byteStride":8},{"buffer":0,"byteOffset":21632,"byteLength":624,"target":34963},{"buffer":0,"byteOffset":22256,"byteLength":3216,"target":34962,"byteStride":12},{"buffer":0,"byteOffset":25472,"byteLength":3216,"target":34962,"byteStride":12},{"buffer":0,"byteOffset":28688,"byteLength":2144,"target":34962,"byteStride":8},{"buffer":0,"byteOffset":30832,"byteLength":792,"target":34963},{"buffer":0,"byteOffset":31624,"byteLength":3216,"target":34962,"byteStride":12},{"buffer":0,"byteOffset":34840,"byteLength":3216,"target":34962,"byteStride":12},{"buffer":0,"byteOffset":38056,"byteLength":2144,"target":34962,"byteStride":8},{"buffer":0,"byteOffset":40200,"byteLength":792,"target":34963},{"buffer":0,"byteOffset":40992,"byteLength":288,"target":34962,"byteStride":12},{"buffer":0,"byteOffset":41280,"byteLength":288,"target":34962,"byteStride":12},{"buffer":0,"byteOffset":41568,"byteLength":192,"target":34962,"byteStride":8},{"buffer":0,"byteOffset":41760,"byteLength":72,"target":34963},{"buffer":0,"byteOffset":41832,"byteLength":288,"target":34962,"byteStride":12},{"buffer":0,"byteOffset":42120,"byteLength":288,"target":34962,"byteStride":12},{"buffer":0,"byteOffset":42408,"byteLength":192,"target":34962,"byteStride":8},{"buffer":0,"byteOffset":42600,"byteLength":72,"target":34963},{"buffer":0,"byteOffset":42672,"byteLength":768,"target":34962,"byteStride":12},{"buffer":0,"byteOffset":43440,"byteLength":768,"target":34962,"byteStride":12},{"buffer":0,"byteOffset":44208,"byteLength":512,"target":34962,"byteStride":8},{"buffer":0,"byteOffset":44720,"byteLength":168,"target":34963},{"buffer":0,"byteOffset":44888,"byteLength":3408,"target":34962,"byteStride":12},{"buffer":0,"byteOffset":48296,"byteLength":3408,"target":34962,"byteStride":12},{"buffer":0,"byteOffset":51704,"byteLength":2272,"target":34962,"byteStride":8},{"buffer":0,"byteOffset":53976,"byteLength":792,"target":34963}],"buffers":[{"byteLength":54768,"uri":"data:application/octet-stream;base64,"}],"accessors":[{"bufferView":0,"componentType":5126,"count":216,"max":[0.3125,0.8125,0.3125],"min":[-0.3125,0.1875,-0.3125],"type":"VEC3"},{"bufferView":1,"componentType":5126,"count":216,"max":[1,1,1],"min":[-1,-1,-1],"type":"VEC3"},{"bufferView":2,"componentType":5126,"count":216,"max":[0.390625,1],"min":[0,0],"type":"VEC2"},{"bufferView":3,"componentType":5123,"count":288,"max":[215],"min":[0],"type":"SCALAR"},{"bufferView":4,"componentType":5126,"count":216,"max":[0.3125,0.8125,0.3125],"min":[-0.3125,0.1875,-0.3125],"type":"VEC3"},{"bufferView":5,"componentType":5126,"count":216,"max":[1,1,1],"min":[-1,-1,-1],"type":"VEC3"},{"bufferView":6,"componentType":5126,"count":216,"max":[0.41747188568115234,1],"min":[0,0],"type":"VEC2"},{"bufferView":7,"componentType":5123,"count":288,"max":[215],"min":[0],"type":"SCALAR"},{"bufferView":8,"componentType":5126,"count":208,"max":[0.33203125,0.24609375,0.1875],"min":[-0.625,-0.0062500000931322575,-0.9375],"type":"VEC3"},{"bufferView":9,"componentType":5126,"count":208,"max":[1,1,1],"min":[-1,-1,-1],"type":"VEC3"},{"bufferView":10,"componentType":5126,"count":208,"max":[0.625,0.625],"min":[0,0],"type":"VEC2"},{"bufferView":11,"componentType":5123,"count":312,"max":[207],"min":[0],"type":"SCALAR"},{"bufferView":12,"componentType":5126,"count":268,"max":[0.0625,2.5,4],"min":[-0.4375,0,-4],"type":"VEC3"},{"bufferView":13,"componentType":5126,"count":268,"max":[1,1,1],"min":[-1,-1,-1],"type":"VEC3"},{"bufferView":14,"componentType":5126,"count":268,"max":[1,2.5],"min":[0,0],"type":"VEC2"},{"bufferView":15,"componentType":5123,"count":396,"max":[267],"min":[0],"type":"SCALAR"},{"bufferView":16,"componentType":5126,"count":268,"max":[0.4375,2.5,4],"min":[-0.0625,0,-4],"type":"VEC3"},{"bufferView":17,"componentType":5126,"count":268,"max":[1,1,1],"min":[-1,-1,-1],"type":"VEC3"},{"bufferView":18,"componentType":5126,"count":268,"max":[1,2.5],"min":[0,0],"type":"VEC2"},{"bufferView":19,"componentType":5123,"count":396,"max":[267],"min":[0],"type":"SCALAR"},{"bufferView":20,"componentType":5126,"count":24,"max":[1.375,2.5,0.0625],"min":[-1.375,0,-0.0625],"type":"VEC3"},{"bufferView":21,"componentType":5126,"count":24,"max":[0.7071067690849304,1,1],"min":[-0.7071067690849304,-1,-1],"type":"VEC3"},{"bufferView":22,"componentType":5126,"count":24,"max":[0.125,2.5],"min":[0,0],"type":"VEC2"},{"bufferView":23,"componentType":5123,"count":36,"max":[23],"min":[0],"type":"SCALAR"},{"bufferView":24,"componentType":5126,"count":24,"max":[1.375,2.5,0.0625],"min":[-1.375,0,-0.0625],"type":"VEC3"},{"bufferView":25,"componentType":5126,"count":24,"max":[0.7071067690849304,1,1],"min":[-0.7071067690849304,-1,-1],"type":"VEC3"},{"bufferView":26,"componentType":5126,"count":24,"max":[0.125,2.5],"min":[0,0],"type":"VEC2"},{"bufferView":27,"componentType":5123,"count":36,"max":[23],"min":[0],"type":"SCALAR"},{"bufferView":28,"componentType":5126,"count":64,"max":[1.75,0,4],"min":[-1.75,-0.25,-4],"type":"VEC3"},{"bufferView":29,"componentType":5126,"count":64,"max":[0.5547001957893372,1,0.5547001957893372],"min":[-0.5547001957893372,-1,-0.5547001957893372],"type":"VEC3"},{"bufferView":30,"componentType":5126,"count":64,"max":[7.25,3.5],"min":[0,0],"type":"VEC2"},{"bufferView":31,"componentType":5123,"count":84,"max":[63],"min":[0],"type":"SCALAR"},{"bufferView":32,"componentType":5126,"count":284,"max":[1.75,0.5,4],"min":[-1.75,0,-4],"type":"VEC3"},{"bufferView":33,"componentType":5126,"count":284,"max":[1,1,1],"min":[-1,-1,-1],"type":"VEC3"},{"bufferView":34,"componentType":5126,"count":284,"max":[7.25,3.5],"min":[0,0],"type":"VEC2"},{"bufferView":35,"componentType":5123,"count":396,"max":[283],"min":[0],"type":"SCALAR"}],"materials":[{"pbrMetallicRoughness":{"metallicFactor":0,"roughnessFactor":1},"alphaMode":"MASK","alphaCutoff":0.05,"doubleSided":true},{"pbrMetallicRoughness":{"metallicFactor":0,"roughnessFactor":1},"alphaMode":"MASK","alphaCutoff":0.05,"doubleSided":true},{"pbrMetallicRoughness":{"metallicFactor":0,"roughnessFactor":1},"alphaMode":"MASK","alphaCutoff":0.05,"doubleSided":true},{"pbrMetallicRoughness":{"metallicFactor":0,"roughnessFactor":1},"alphaMode":"MASK","alphaCutoff":0.05,"doubleSided":true}],"meshes":[{"primitives":[{"mode":4,"attributes":{"POSITION":0,"NORMAL":1,"TEXCOORD_0":2},"indices":3,"material":0}]},{"primitives":[{"mode":4,"attributes":{"POSITION":4,"NORMAL":5,"TEXCOORD_0":6},"indices":7,"material":0}]},{"primitives":[{"mode":4,"attributes":{"POSITION":8,"NORMAL":9,"TEXCOORD_0":10},"indices":11,"material":0}]},{"primitives":[{"mode":4,"attributes":{"POSITION":12,"NORMAL":13,"TEXCOORD_0":14},"indices":15,"material":1}]},{"primitives":[{"mode":4,"attributes":{"POSITION":16,"NORMAL":17,"TEXCOORD_0":18},"indices":19,"material":1}]},{"primitives":[{"mode":4,"attributes":{"POSITION":20,"NORMAL":21,"TEXCOORD_0":22},"indices":23,"material":2}]},{"primitives":[{"mode":4,"attributes":{"POSITION":24,"NORMAL":25,"TEXCOORD_0":26},"indices":27,"material":2}]},{"primitives":[{"mode":4,"attributes":{"POSITION":28,"NORMAL":29,"TEXCOORD_0":30},"indices":31,"material":3}]},{"primitives":[{"mode":4,"attributes":{"POSITION":32,"NORMAL":33,"TEXCOORD_0":34},"indices":35,"material":3}]}]}